<svg width="19" height="19" viewBox="0 0 19 19" fill="none" xmlns="http://www.w3.org/2000/svg">
<g clip-path="url(#clip0_19_339)">
<path d="M15.4375 0H3.56248C1.59482 0 0 1.59482 0 3.56248V15.4375C0 17.4052 1.59482 19 3.56248 19H15.4375C17.4052 19 19 17.4051 19 15.4375V3.56248C19 1.59482 17.4052 0 15.4375 0ZM15.3366 11.6268C15.2724 12.4177 14.6716 13.427 13.832 13.5731C11.1423 13.7821 7.95506 13.756 5.16922 13.5731C4.29996 13.4638 3.72879 12.4165 3.66467 11.6268C3.5293 9.96667 3.5293 9.02141 3.66467 7.36129C3.72879 6.57161 4.31423 5.53015 5.16922 5.43517C7.92304 5.20359 11.1281 5.25347 13.832 5.43517C14.7986 5.47078 15.2724 6.46711 15.3366 7.25798C15.4695 8.9181 15.4695 9.96667 15.3366 11.6268Z" fill="white"/>
<path d="M8.3125 11.875L11.875 9.5L8.3125 7.125V11.875Z" fill="white"/>
</g>
<defs>
<clipPath id="clip0_19_339">
<rect width="19" height="19" fill="white"/>
</clipPath>
</defs>
</svg>
