<svg width="19" height="19" viewBox="0 0 19 19" fill="none" xmlns="http://www.w3.org/2000/svg">
<g clip-path="url(#clip0_19_336)">
<path d="M10.524 10.4714C10.2194 10.294 9.79608 10.294 9.4521 10.294H8.32259V12.6215H9.35928C9.74304 12.6215 10.2325 12.6491 10.5634 12.4167C10.8672 12.2122 11.0392 11.8109 11.0392 11.4287C11.0392 11.0736 10.8278 10.6489 10.524 10.4714ZM10.0979 8.4837C10.3493 8.29231 10.4811 7.9511 10.4811 7.63681C10.4811 7.29541 10.3225 6.96766 10.0318 6.79032C9.7276 6.61299 9.17166 6.65396 8.81461 6.65396H8.32259V8.7024H8.97354C9.34384 8.7022 9.78065 8.72951 10.0979 8.4837ZM15.6602 0H3.33945C1.49526 0 0 1.49526 0 3.33984V15.6602C0 17.5043 1.49526 19 3.33945 19H15.6602C17.5043 19 19 17.5043 19 15.6602V3.33984C19 1.49526 17.5043 0 15.6602 0ZM10.0154 14.3559H6.13383V4.9877H10.3748C11.6033 4.9877 12.7367 5.76967 12.7367 7.14895C12.7367 8.21394 12.1422 8.94326 11.3838 9.16988V9.19739C12.5083 9.42974 13.3115 10.0405 13.3115 11.514C13.3115 12.8776 12.3829 14.3559 10.0154 14.3559Z" fill="white"/>
</g>
<defs>
<clipPath id="clip0_19_336">
<rect width="19" height="19" fill="white"/>
</clipPath>
</defs>
</svg>
